<svg width="30" height="30" viewBox="0 0 30 30" fill="none" xmlns="http://www.w3.org/2000/svg">
<path d="M18.683 29.3267H8.54903L10.5406 24.1166L13.6161 22.4788L16.6914 24.1166L17.2488 25.5742L18.683 29.3267Z" fill="#86BEEC"/>
<path d="M17.2488 25.5742H12.7141L11.5904 29.3267H8.54903L10.5406 24.1166L13.6161 22.4788L16.6914 24.1166L17.2488 25.5742Z" fill="#69AFE7"/>
<path d="M16.8341 16.0744H15.3854V11.4795C15.3854 11.0235 15.0144 10.6526 14.5585 10.6526C14.1025 10.6526 13.7316 11.0235 13.7316 11.4795V12.2518H12.2828V11.4795C12.2828 10.2246 13.3037 9.20386 14.5585 9.20386C15.8132 9.20386 16.8341 10.2247 16.8341 11.4795V16.0744Z" fill="#F1F4F6"/>
<path d="M14.9122 9.23152C13.8243 9.40168 12.9899 10.3452 12.9899 11.4795V12.2518H12.2828V11.4795C12.2828 10.2249 13.3038 9.20392 14.5584 9.20392C14.6787 9.20392 14.7967 9.21335 14.9122 9.23152Z" fill="#CEDFE2"/>
<path d="M16.0929 11.4795V16.0747H15.3852V11.4795C15.3852 11.1497 15.1915 10.8651 14.9122 10.7319C15.0196 10.6814 15.1393 10.6526 15.2661 10.6526C15.722 10.6527 16.0929 11.0236 16.0929 11.4795Z" fill="#CEDFE2"/>
<path d="M28.0395 29.3268H26.2791V7.45007L20.7714 1.94229C20.4276 1.59857 20.4276 1.04127 20.7714 0.697548C21.1151 0.353828 21.6724 0.353828 22.0161 0.697548L27.7817 6.46315C27.9468 6.62821 28.0395 6.85211 28.0395 7.08555V29.3268Z" fill="#86BEEC"/>
<path d="M27.171 7.05495V29.3267H26.2791V7.44988L20.7714 1.94221C20.4276 1.59838 20.4276 1.04149 20.7714 0.697648C20.9427 0.52573 21.1681 0.440063 21.3934 0.440063C21.4433 0.440063 21.4937 0.444165 21.543 0.453013C21.326 0.793393 21.3664 1.25044 21.6633 1.5474L27.171 7.05495Z" fill="#69AFE7"/>
<path d="M12.7138 17.8575H14.8075V22.0579H12.7138V17.8575Z" fill="#ECD5AF"/>
<path d="M26.9743 27.2028C26.6803 27.2028 26.3825 27.129 26.1085 26.9739L21.0627 24.1168H7.55273C6.89207 24.1168 6.28695 23.7469 5.98583 23.1588L0.632972 12.7054C0.189816 11.84 0.53213 10.7793 1.39752 10.3362C2.26286 9.89294 3.32367 10.2354 3.76677 11.1007L8.62901 20.5961H21.5264C21.8304 20.5961 22.1292 20.6748 22.3937 20.8246L27.8432 23.9102C28.6892 24.3892 28.9867 25.4634 28.5076 26.3094C28.1838 26.8815 27.5878 27.2027 26.9743 27.2028Z" fill="white"/>
<path d="M28.7029 25.7819C28.6676 25.9626 28.6031 26.1404 28.5074 26.3094C28.1835 26.8815 27.5879 27.2025 26.9741 27.2025C26.6801 27.2025 26.3826 27.1292 26.1086 26.9737L21.0628 24.1166H7.55241C6.89227 24.1166 6.28669 23.7469 5.98569 23.1589L0.632948 12.7052C0.189909 11.8402 0.531989 10.7793 1.39756 10.3363C1.404 10.3333 1.40986 10.3298 1.41631 10.3269C1.34236 10.7013 1.3893 11.1026 1.57651 11.4688L6.92925 21.9226C7.23025 22.5106 7.83584 22.8802 8.49656 22.8802H22.0063L27.0522 25.7374C27.3262 25.8929 27.6237 25.9662 27.9177 25.9662C28.1906 25.9661 28.4593 25.9028 28.7029 25.7819Z" fill="#BEEFDB"/>
<path d="M18.056 14.9765C18.056 17.3487 16.133 19.2718 13.7607 19.2718C11.3885 19.2718 9.46545 17.3487 9.46545 14.9765H18.056Z" fill="#86BEEC"/>
<path d="M14.8815 19.1241C14.5242 19.2203 14.1486 19.272 13.7608 19.272C11.3884 19.272 9.46545 17.3485 9.46545 14.9767H11.707C11.707 16.9606 13.0525 18.6312 14.8815 19.1241Z" fill="#69AFE7"/>
<path d="M13.4755 2.21511C15.5532 0.137442 18.9217 0.137442 20.9994 2.21511C23.0771 4.29279 23.0771 7.66137 20.9994 9.73905L13.4755 2.21511Z" fill="#F1F4F6"/>
<path d="M20.9994 2.21508C20.2676 1.48334 17.9903 2.5748 15.9125 4.65206L13.4755 2.21508C15.5527 0.137291 18.9215 0.137291 20.9994 2.21508Z" fill="#CEDFE2"/>
<path d="M20.9922 17.1345H28.482C29.0779 17.1345 29.5611 16.6515 29.5611 16.0555C29.5611 15.4596 29.078 14.9766 28.482 14.9766H20.9922C20.3963 14.9766 19.9132 15.4596 19.9132 16.0555C19.9132 16.6515 20.3963 17.1345 20.9922 17.1345Z" fill="white"/>
<path d="M29.5554 16.1661C29.5003 16.7101 29.0408 17.1343 28.4822 17.1343H20.9923C20.6942 17.1343 20.4243 17.0135 20.2295 16.8186C20.0341 16.6232 19.9132 16.3539 19.9132 16.0558C19.9132 15.4596 20.3961 14.9767 20.9923 14.9767H21.9546C21.9505 15.0131 21.9488 15.05 21.9488 15.087C21.9488 15.3845 22.0697 15.6545 22.2645 15.8499C22.4599 16.0453 22.7298 16.1661 23.0279 16.1661H29.5554Z" fill="#BEEFDB"/>
<path d="M28.4816 17.574C29.3188 17.574 30 16.8928 30 16.0555C30 15.2181 29.3188 14.537 28.4816 14.537H28.4783V7.08535C28.4783 6.73295 28.341 6.4016 28.0917 6.15233L25.8581 3.91868C25.6864 3.74705 25.4082 3.74705 25.2366 3.91868C25.0649 4.0903 25.0649 4.36857 25.2366 4.54014L27.4702 6.77379C27.5535 6.85706 27.5993 6.96774 27.5993 7.08535V14.537H26.7181V7.44981C26.7181 7.33326 26.6718 7.22146 26.5893 7.13902L21.0817 1.63194C20.9099 1.45984 20.9099 1.17988 21.0814 1.00802C21.1646 0.924751 21.2756 0.87893 21.3935 0.87893C21.5109 0.87893 21.6217 0.924986 21.705 1.00802L24.0131 3.31667C24.1847 3.4883 24.4629 3.48835 24.6345 3.31673C24.8062 3.1451 24.8062 2.86689 24.6346 2.69521L22.326 0.385967C22.0762 0.137054 21.745 0 21.3935 0C21.0407 0 20.7091 0.137289 20.4596 0.386788C20.2879 0.558824 20.1749 0.767247 20.118 0.98739C19.2517 0.485286 18.265 0.217389 17.2369 0.217389C15.6985 0.217389 14.2521 0.816526 13.1642 1.90441C12.9926 2.07603 12.9926 2.3543 13.1642 2.52587L20.6881 10.0498C20.7739 10.1356 20.8864 10.1785 20.9989 10.1785C21.1113 10.1785 21.2238 10.1356 21.3097 10.0498C22.3975 8.96198 22.9966 7.51555 22.9966 5.97707C22.9966 5.51821 22.9429 5.06773 22.8393 4.63237L25.8391 7.63192V14.5371H20.9918C20.1545 14.5371 19.4734 15.2183 19.4734 16.0556C19.4734 16.8929 20.1545 17.5741 20.9918 17.5741H25.8392V22.2711L22.6101 20.4427C22.2808 20.2557 21.9059 20.1569 21.526 20.1569H15.2463V19.471C17.1311 18.8462 18.495 17.0682 18.495 14.9765C18.495 14.7338 18.2983 14.537 18.0556 14.537H17.2731V11.4794C17.2731 9.9823 16.0551 8.76434 14.558 8.76434C13.0609 8.76434 11.8429 9.98236 11.8429 11.4794V12.2517C11.8429 12.4944 12.0397 12.6912 12.2824 12.6912H13.7311C13.9738 12.6912 14.1706 12.4944 14.1706 12.2517V11.4794C14.1706 11.2658 14.3444 11.092 14.558 11.092C14.7717 11.092 14.9455 11.2658 14.9455 11.4794V14.537H9.46492C9.22222 14.537 9.02546 14.7338 9.02546 14.9765C9.02546 17.068 10.3892 18.846 12.2737 19.4709V20.1568H8.89719L4.15747 10.9007C3.88975 10.3776 3.43429 9.99003 2.875 9.80944C2.31553 9.62885 1.71956 9.67702 1.197 9.94497C0.117386 10.4976 -0.311297 11.8256 0.241433 12.9055L5.10895 22.4114C5.21957 22.6275 5.48442 22.7129 5.70041 22.6023C5.91645 22.4916 6.00188 22.2268 5.89125 22.0108L1.0238 12.505C0.863012 12.1909 0.834124 11.833 0.942467 11.4973C1.05081 11.1615 1.28343 10.8881 1.5978 10.7272C1.91152 10.5663 2.26924 10.5374 2.60493 10.6459C2.94074 10.7543 3.21427 10.987 3.37511 11.3012L8.23735 20.7966C8.31253 20.9434 8.46358 21.0358 8.62853 21.0358H21.5259C21.7541 21.0358 21.9788 21.095 22.1766 21.2072L27.6261 24.293C27.9331 24.4666 28.1541 24.7495 28.2482 25.0895C28.3424 25.4294 28.2985 25.7857 28.1244 26.093C27.8906 26.5066 27.4495 26.7635 26.9735 26.7635C26.7474 26.7635 26.5231 26.7041 26.3246 26.5914L21.279 23.7343C21.2129 23.6969 21.1383 23.6772 21.0625 23.6772H7.55214C7.23637 23.6772 6.93067 23.5639 6.69143 23.3581C6.50738 23.1998 6.22993 23.2207 6.07167 23.4047C5.9134 23.5887 5.93426 23.8662 6.11825 24.0244C6.51693 24.3673 7.02613 24.5561 7.55214 24.5561H9.90157L8.13821 29.1698C8.08658 29.3049 8.10475 29.4567 8.18672 29.5759C8.2687 29.695 8.40405 29.7662 8.54872 29.7662H18.6823C18.8269 29.7662 18.9622 29.695 19.0443 29.5759C19.1263 29.4567 19.1444 29.3049 19.0928 29.1698L17.3294 24.5561H20.9466L25.8391 27.3265V29.327C25.8391 29.5697 26.0358 29.7664 26.2786 29.7664H28.0388C28.2815 29.7664 28.4782 29.5697 28.4782 29.327V27.0463C28.6385 26.8963 28.7783 26.7222 28.8893 26.5259C29.179 26.0146 29.2521 25.421 29.0953 24.8547C28.9854 24.4583 28.7718 24.1087 28.4783 23.8353V17.574H28.4816ZM20.9851 9.10366L14.1102 2.22879C14.9861 1.49553 16.0809 1.09626 17.2369 1.09626C18.5406 1.09626 19.7663 1.60399 20.6881 2.52581C22.4864 4.32404 22.5853 7.18806 20.9851 9.10366ZM14.558 10.213C13.8597 10.213 13.2917 10.7811 13.2917 11.4794V11.8122H12.7218V11.4794C12.7218 10.4669 13.5456 9.64327 14.558 9.64327C15.5704 9.64327 16.3942 10.467 16.3942 11.4794V14.537H15.8244V11.4794C15.8244 10.7811 15.2563 10.213 14.558 10.213ZM9.92929 15.416H17.5912C17.3724 17.3359 15.7377 18.8323 13.7602 18.8323C11.7827 18.8323 10.1481 17.3359 9.92929 15.416ZM13.1527 19.6709C13.3518 19.6966 13.5543 19.7112 13.7603 19.7112C13.966 19.7112 14.1684 19.6966 14.3674 19.671V20.1568H13.1527V19.6709ZM9.18718 28.8873L10.8425 24.5562H16.3885L18.0439 28.8873H9.18718ZM20.3522 16.0555C20.3522 15.7029 20.6391 15.416 20.9917 15.416H28.4815C28.8341 15.416 29.121 15.7028 29.121 16.0555C29.121 16.4082 28.8341 16.6951 28.4815 16.6951H20.9918C20.6392 16.695 20.3522 16.4082 20.3522 16.0555ZM27.5993 28.8875H26.7181V27.6265C26.8027 27.6365 26.888 27.6423 26.9735 27.6423C27.1884 27.6423 27.3987 27.6098 27.5993 27.5502V28.8875ZM27.5993 23.2677L26.7181 22.7687V17.574H27.5993V23.2677Z" fill="black"/>
</svg>
