<svg width="30" height="30" viewBox="0 0 30 30" fill="none" xmlns="http://www.w3.org/2000/svg">
<path d="M11.3265 11.9388C14.3697 11.9388 16.8367 9.4718 16.8367 6.4286C16.8367 3.3854 14.3697 0.918396 11.3265 0.918396C8.28332 0.918396 5.81631 3.3854 5.81631 6.4286C5.81631 9.4718 8.28332 11.9388 11.3265 11.9388Z" fill="#86BEEC"/>
<path d="M21.6612 20.5102V25.4082H14.3143H8.2653H0.918365V20.5102C0.918365 19.2122 1.43265 18.0245 2.25306 17.1429C2.93877 16.4204 3.83265 15.9184 4.83673 15.7102C4.99592 15.6735 5.1551 15.649 5.31428 15.6367C5.46122 15.6245 5.59592 15.6122 5.74285 15.6122H16.7633C16.9347 15.6122 17.0939 15.6245 17.2653 15.6367C17.4245 15.649 17.5837 15.6735 17.7429 15.7102C18.7469 15.9184 19.6408 16.4204 20.3265 17.1429C21.1469 18.0245 21.6612 19.2122 21.6612 20.5102V20.5102Z" fill="#F3F3F1"/>
<path d="M2.21634 17.1184C2.90205 16.3959 3.82042 15.8816 4.83675 15.7102C3.83267 15.9184 2.93879 16.4204 2.25307 17.1429L2.21634 17.1184Z" fill="#86BEEC"/>
<path d="M21.7347 15.6122H22.9592C23.6351 15.6122 24.1837 16.1608 24.1837 16.8367V20.5102H27.8571C28.5331 20.5102 29.0816 21.0588 29.0816 21.7347V22.9592C29.0816 23.6351 28.5331 24.1837 27.8571 24.1837H24.1837V27.8571C24.1837 28.5331 23.6351 29.0816 22.9592 29.0816H21.7347C21.0588 29.0816 20.5102 28.5331 20.5102 27.8571V24.1837H16.8367C16.1608 24.1837 15.6122 23.6351 15.6122 22.9592V21.7347C15.6122 21.0588 16.1608 20.5102 16.8367 20.5102H20.5102V16.8367C20.5102 16.1608 21.0588 15.6122 21.7347 15.6122Z" fill="#86BEEC"/>
<path d="M12.551 11.8041C12.1592 11.8898 11.7428 11.9388 11.3265 11.9388C8.27754 11.9388 5.81631 9.47758 5.81631 6.4286C5.81631 3.37962 8.27754 0.918396 11.3265 0.918396C11.7428 0.918396 12.1592 0.967376 12.551 1.05309C10.0898 1.60411 8.26529 3.79595 8.26529 6.4286C8.26529 9.06125 10.0898 11.2531 12.551 11.8041Z" fill="#69AFE7"/>
<path d="M19.2857 24.1837H16.8367C16.1633 24.1837 15.6122 23.6326 15.6122 22.9592V21.7347C15.6122 21.0612 16.1633 20.5102 16.8367 20.5102H19.2857C18.6122 20.5102 18.0612 21.0612 18.0612 21.7347V22.9592C18.0612 23.6326 18.6122 24.1837 19.2857 24.1837Z" fill="#69AFE7"/>
<path d="M8.19183 15.6122C8.04489 15.6122 7.9102 15.6245 7.76326 15.6367C7.60408 15.649 7.4449 15.6735 7.28571 15.7102C6.28163 15.9184 5.38775 16.4204 4.70204 17.1429C3.88163 18.0245 3.36734 19.2122 3.36734 20.5102V25.4082H0.918365V20.5102C0.918365 19.2122 1.43265 18.0245 2.25306 17.1429C2.93877 16.4204 3.83265 15.9184 4.83673 15.7102C4.99592 15.6735 5.1551 15.649 5.31428 15.6367C5.46122 15.6245 5.59592 15.6122 5.74285 15.6122H8.19183Z" fill="#D5DBE1"/>
<path d="M11.3265 12.8571C7.78162 12.8571 4.89795 9.97347 4.89795 6.42857C4.89795 2.88367 7.78162 0 11.3265 0C14.8714 0 17.7551 2.88367 17.7551 6.42857C17.7551 9.97347 14.8714 12.8571 11.3265 12.8571ZM11.3265 1.83673C8.79428 1.83673 6.73468 3.89755 6.73468 6.42857C6.73468 8.95959 8.79428 11.0204 11.3265 11.0204C13.8588 11.0204 15.9184 8.95959 15.9184 6.42857C15.9184 3.89755 13.8588 1.83673 11.3265 1.83673Z" fill="black"/>
<path d="M11.9388 26.3265H0.918367C0.411429 26.3265 0 25.9151 0 25.4081V20.5102C0 17.3032 2.60939 14.6938 5.81633 14.6938H16.8367V16.5306H5.81633C3.62204 16.5306 1.83673 18.3159 1.83673 20.5102V24.4898H11.9388V26.3265Z" fill="black"/>
<path d="M22.9592 30H21.7347C20.5531 30 19.5918 29.0387 19.5918 27.8571V25.102H16.8367C15.6551 25.102 14.6939 24.1408 14.6939 22.9592V21.7347C14.6939 20.553 15.6551 19.5918 16.8367 19.5918H19.5918V16.8367C19.5918 15.6551 20.5531 14.6938 21.7347 14.6938H22.9592C24.1408 14.6938 25.102 15.6551 25.102 16.8367V19.5918H27.8571C29.0388 19.5918 30 20.553 30 21.7347V22.9592C30 24.1408 29.0388 25.102 27.8571 25.102H25.102V27.8571C25.102 29.0387 24.1408 30 22.9592 30ZM16.8367 21.4285C16.6678 21.4285 16.5306 21.5657 16.5306 21.7347V22.9592C16.5306 23.1281 16.6678 23.2653 16.8367 23.2653H20.5102C21.0171 23.2653 21.4286 23.6767 21.4286 24.1836V27.8571C21.4286 28.0261 21.5657 28.1632 21.7347 28.1632H22.9592C23.1282 28.1632 23.2653 28.0261 23.2653 27.8571V24.1836C23.2653 23.6767 23.6767 23.2653 24.1837 23.2653H27.8571C28.0261 23.2653 28.1633 23.1281 28.1633 22.9592V21.7347C28.1633 21.5657 28.0261 21.4285 27.8571 21.4285H24.1837C23.6767 21.4285 23.2653 21.0171 23.2653 20.5102V16.8367C23.2653 16.6677 23.1282 16.5306 22.9592 16.5306H21.7347C21.5657 16.5306 21.4286 16.6677 21.4286 16.8367V20.5102C21.4286 21.0171 21.0171 21.4285 20.5102 21.4285H16.8367Z" fill="black"/>
</svg>
