<svg width="30" height="30" viewBox="0 0 30 30" fill="none" xmlns="http://www.w3.org/2000/svg">
<path d="M28.899 26.4135C29.5858 27.0997 29.5858 28.2129 28.899 28.8991C28.5557 29.2424 28.1063 29.4141 27.6563 29.4141C27.2063 29.4141 26.7568 29.2424 26.4135 28.8991L20.7551 23.2407C21.6791 22.5141 22.5141 21.6792 23.2406 20.7551L28.899 26.4135Z" fill="#69AFE7"/>
<path d="M20.7322 18.2467L23.2406 20.7551C22.514 21.6791 21.6791 22.5141 20.755 23.2407L18.2466 20.7322V20.7317C19.2 20.0397 20.0396 19.2 20.7316 18.2467H20.7322Z" fill="#F3F3F1"/>
<path d="M22.8516 11.7188C22.8516 14.1551 22.0646 16.4115 20.7316 18.2467C20.0396 19.2 19.2 20.0396 18.2467 20.7316C16.4115 22.0646 14.1551 22.8516 11.7188 22.8516C5.57988 22.8516 0.585938 17.8576 0.585938 11.7188C0.585938 5.57988 5.57988 0.585938 11.7188 0.585938C17.8576 0.585938 22.8516 5.57988 22.8516 11.7188Z" fill="#86BEEC"/>
<path d="M11.7188 2.92969C16.565 2.92969 20.5078 6.87246 20.5078 11.7188C20.5078 16.565 16.565 20.5078 11.7188 20.5078C6.87246 20.5078 2.92969 16.565 2.92969 11.7188C2.92969 6.87246 6.87246 2.92969 11.7188 2.92969Z" fill="#F3F3F1"/>
<path d="M29.3133 25.9992L21.4922 18.1781C22.7664 16.2589 23.4375 14.0364 23.4375 11.7188C23.4375 5.25703 18.1805 0 11.7188 0C5.25703 0 0 5.25703 0 11.7188C0 18.1805 5.25703 23.4375 11.7188 23.4375C14.0365 23.4375 16.2589 22.7663 18.1781 21.4923L20.3399 23.6541C20.3402 23.6544 20.3405 23.6547 20.3408 23.6551L25.9991 29.3133C26.442 29.7561 27.0304 30 27.6562 30C28.2821 30 28.8705 29.7561 29.3132 29.3135C29.7561 28.871 30 28.2824 30 27.6562C30 27.0301 29.7561 26.4415 29.3133 25.9992ZM19.1318 20.7887C19.7382 20.2925 20.2926 19.7382 20.7887 19.1318L22.451 20.7942C21.9455 21.3908 21.3908 21.9455 20.7942 22.451L19.1318 20.7887ZM1.17188 11.7188C1.17188 5.9032 5.9032 1.17188 11.7188 1.17188C17.5343 1.17188 22.2656 5.9032 22.2656 11.7188C22.2656 13.9556 21.5712 16.0938 20.2575 17.9024C19.6003 18.8079 18.8079 19.6003 17.9025 20.2574C17.9025 20.2575 17.9024 20.2575 17.9024 20.2576C16.0938 21.5712 13.9556 22.2656 11.7188 22.2656C5.9032 22.2656 1.17188 17.5343 1.17188 11.7188ZM28.4847 28.4847C28.2632 28.7062 27.969 28.8281 27.6562 28.8281C27.3435 28.8281 27.0493 28.7062 26.8278 28.4847L21.625 23.2819C22.2183 22.7726 22.7726 22.2184 23.2818 21.625L28.4848 26.828C28.7062 27.0492 28.8281 27.3432 28.8281 27.6562C28.8281 27.9693 28.7062 28.2633 28.4847 28.4847Z" fill="black"/>
<path d="M21.0938 11.7188C21.0938 6.54932 16.8882 2.34375 11.7188 2.34375C6.54932 2.34375 2.34375 6.54932 2.34375 11.7188C2.34375 16.8882 6.54932 21.0938 11.7188 21.0938C16.8882 21.0938 21.0938 16.8882 21.0938 11.7188ZM11.7188 19.9219C7.19555 19.9219 3.51562 16.242 3.51562 11.7188C3.51562 7.19555 7.19555 3.51562 11.7188 3.51562C16.242 3.51562 19.9219 7.19555 19.9219 11.7188C19.9219 16.242 16.242 19.9219 11.7188 19.9219Z" fill="black"/>
<path d="M17.9483 9.96064C18.2503 9.84457 18.4011 9.50561 18.2851 9.2035C17.7805 7.89029 16.902 6.76752 15.7444 5.95664C14.5593 5.12637 13.1672 4.6875 11.7188 4.6875C11.3952 4.6875 11.1328 4.94988 11.1328 5.27344C11.1328 5.59699 11.3952 5.85937 11.7188 5.85937C14.1269 5.85937 16.326 7.37215 17.1912 9.62385C17.2807 9.85682 17.5027 9.99978 17.7383 9.99978C17.8081 9.99978 17.8792 9.98719 17.9483 9.96064Z" fill="black"/>
<path d="M18.1641 11.1328C17.8406 11.1328 17.5781 11.3953 17.5781 11.7188C17.5781 12.0422 17.8406 12.3047 18.1641 12.3047C18.4875 12.3047 18.75 12.0422 18.75 11.7188C18.75 11.3953 18.4875 11.1328 18.1641 11.1328Z" fill="black"/>
</svg>
