<svg width="200" height="200" viewBox="0 0 200 200" fill="none" xmlns="http://www.w3.org/2000/svg">
<path d="M55.7019 27.0944L48.6251 40.0336L41.5483 27.0944L28.6091 20.0176L41.5483 12.9408L48.6251 0L55.7019 12.9408L68.6406 20.0176L55.7019 27.0944Z" fill="#26BBEC"/>
<path d="M54.226 191.203L49.415 200L44.604 191.203L35.8082 186.392L44.604 181.581L49.415 172.783L54.226 181.581L63.0233 186.392L54.226 191.203Z" fill="#26BBEC"/>
<path d="M148.488 88.6268C148.616 86.3336 148.683 84.2819 148.683 82.5345C148.683 60.809 138.564 43.1958 123.228 43.1958C115.901 43.1958 108.572 50.1376 101.245 50.1376C93.9185 50.1376 86.5891 43.1958 79.2624 43.1958C63.9261 43.1958 53.8073 60.809 53.8073 82.5345C53.8073 104.26 63.9261 172.783 79.2624 172.783C88.2095 172.783 89.2261 115.88 101.245 115.828C115.579 115.88 114.281 172.783 123.228 172.783C132.728 172.783 140.226 146.49 144.556 121.314" fill="white"/>
<path d="M123.23 176.383C116.259 176.383 114.407 165.859 111.601 149.929C109.724 139.276 106.23 119.446 101.23 119.43C97.7419 119.444 93.5699 140.311 91.9986 148.168C88.5986 165.158 86.3524 176.385 79.2592 176.385C58.2176 176.385 50.2049 96.4603 50.2049 82.5371C50.2049 57.6563 62.4238 39.5986 79.2592 39.5986C83.7338 39.5986 87.8298 41.5391 91.7914 43.4162C95.184 45.0234 98.3894 46.541 101.244 46.541C104.099 46.541 107.301 45.0239 110.693 43.4162C114.655 41.5391 118.754 39.5986 123.229 39.5986C140.064 39.5986 152.283 57.6563 152.283 82.5371C152.283 84.3405 152.217 86.4591 152.084 88.8277C151.974 90.813 150.262 92.3031 148.295 92.224C146.308 92.1144 144.787 90.417 144.899 88.4317C145.017 86.2145 145.086 84.2292 145.086 82.5392C145.086 62.1652 135.689 46.7999 123.231 46.7999C120.376 46.7999 117.171 48.319 113.778 49.9246C109.816 51.8018 105.717 53.7422 101.246 53.7422C96.7711 53.7422 92.6751 51.8018 88.7136 49.9246C85.321 48.3174 82.1156 46.7999 79.2608 46.7999C66.8025 46.7999 57.4056 62.1652 57.4056 82.5392C57.4056 110.726 69.0524 167.369 78.7931 169.145C80.9476 166.724 83.3378 154.77 84.9413 146.757C88.6434 128.255 91.8383 112.274 101.232 112.233C112.277 112.271 115.535 130.783 118.692 148.684C119.964 155.916 121.859 166.672 123.733 169.118C127.687 168.055 135.151 154.77 141.012 120.71C141.35 118.754 143.191 117.42 145.171 117.772C147.129 118.109 148.443 119.972 148.106 121.93C141.888 158.062 133.519 176.383 123.23 176.383Z" fill="black"/>
<path d="M122.62 76.014L117.809 84.8113L112.998 76.014L104.202 71.203L112.998 66.392L117.809 57.5946L122.62 66.392L131.417 71.203L122.62 76.014Z" fill="#26BBEC"/>
<path d="M22.3333 167.082C17.5096 167.082 13.9983 165.858 12.3569 163.016C8.01198 155.491 18.9333 141.891 44.8202 122.592C46.4131 121.399 48.6662 121.734 49.8579 123.326C51.0459 124.921 50.7164 127.176 49.1234 128.364C21.971 148.607 18.1429 158.025 18.6037 159.442C22.0232 163.229 55.3776 154.807 106.844 125.09C158.326 95.3678 182.281 70.6921 180.685 65.802C179.988 65.048 174.305 63.9428 158.146 69.2183C156.247 69.8411 154.226 68.8044 153.609 66.913C152.99 65.0232 154.022 62.991 155.911 62.3757C173.769 56.548 183.625 56.499 186.932 62.228C189.175 66.1121 189.64 73.4282 167.861 92.0206C153.5 104.281 133.108 118.24 110.443 131.329C86.0523 145.408 42.6208 167.078 22.3333 167.082Z" fill="black"/>
<path d="M178.229 165.636C157.945 165.64 114.515 143.966 90.1183 129.883C67.451 116.796 47.0591 102.835 32.7003 90.5745C10.9226 71.9785 11.3867 64.666 13.6292 60.782C15.8054 57.0313 21.6135 53.0408 46.9262 61.691C48.807 62.3338 49.8131 64.3802 49.1688 66.2605C48.5297 68.143 46.4869 69.1459 44.5992 68.5031C26.8405 62.4361 20.629 63.5466 19.8481 64.405C18.2842 69.2503 42.2396 93.9255 93.7181 123.646C145.193 153.367 178.55 161.779 181.987 157.951C182.405 156.623 178.726 147.444 152.515 127.727C150.926 126.532 150.609 124.274 151.804 122.685C152.996 121.096 155.249 120.775 156.846 121.972C181.928 140.843 192.481 154.168 188.206 161.574C186.564 164.41 183.048 165.636 178.229 165.636Z" fill="black"/>
</svg>
